<?xml version="1.0" encoding="UTF-8" standalone="no"?>
<!DOCTYPE svg PUBLIC "-//W3C//DTD SVG 1.1//EN"
 "http://www.w3.org/Graphics/SVG/1.1/DTD/svg11.dtd">
<!-- Generated by graphviz version 12.1.1 (20240910.0053)
 -->
<!-- Title: guiapplication Pages: 1 -->
<svg width="209pt" height="116pt"
 viewBox="0.00 0.00 208.50 116.00" xmlns="http://www.w3.org/2000/svg" xmlns:xlink="http://www.w3.org/1999/xlink">
<g id="graph0" class="graph" transform="scale(1 1) rotate(0) translate(4 112)">
<title>guiapplication</title>
<polygon fill="white" stroke="none" points="-4,4 -4,-112 204.5,-112 204.5,4 -4,4"/>
<!-- guiapp -->
<g id="node1" class="node">
<title>guiapp</title>
<polygon fill="none" stroke="black" points="89.5,-108 2.25,-108 2.25,-72 89.5,-72 89.5,-108"/>
<text text-anchor="middle" x="45.88" y="-86.5" font-family="Lucida Grande" font-size="10.00">GUIApplication</text>
</g>
<!-- juceapp -->
<g id="node2" class="node">
<title>juceapp</title>
<polygon fill="none" stroke="black" points="91.75,-36 0,-36 0,0 91.75,0 91.75,-36"/>
<text text-anchor="middle" x="45.88" y="-14.5" font-family="Lucida Grande" font-size="10.00">JUCEApplication</text>
</g>
<!-- guiapp&#45;&gt;juceapp -->
<g id="edge1" class="edge">
<title>guiapp&#45;&gt;juceapp</title>
<path fill="none" stroke="black" d="M45.88,-71.7C45.88,-64.41 45.88,-55.73 45.88,-47.54"/>
<polygon fill="black" stroke="black" points="49.38,-47.62 45.88,-37.62 42.38,-47.62 49.38,-47.62"/>
</g>
<!-- maincomponent -->
<g id="node3" class="node">
<title>maincomponent</title>
<polygon fill="none" stroke="black" points="200.5,-108 107.25,-108 107.25,-72 200.5,-72 200.5,-108"/>
<text text-anchor="middle" x="153.88" y="-86.5" font-family="Lucida Grande" font-size="10.00">MainComponent</text>
</g>
<!-- component -->
<g id="node4" class="node">
<title>component</title>
<polygon fill="none" stroke="black" points="189.25,-36 118.5,-36 118.5,0 189.25,0 189.25,-36"/>
<text text-anchor="middle" x="153.88" y="-14.5" font-family="Lucida Grande" font-size="10.00">Component</text>
</g>
<!-- maincomponent&#45;&gt;component -->
<g id="edge2" class="edge">
<title>maincomponent&#45;&gt;component</title>
<path fill="none" stroke="black" d="M153.88,-71.7C153.88,-64.41 153.88,-55.73 153.88,-47.54"/>
<polygon fill="black" stroke="black" points="157.38,-47.62 153.88,-37.62 150.38,-47.62 157.38,-47.62"/>
</g>
</g>
</svg>
