<?xml version="1.0" encoding="UTF-8" standalone="no"?>
<!DOCTYPE svg PUBLIC "-//W3C//DTD SVG 1.1//EN"
 "http://www.w3.org/Graphics/SVG/1.1/DTD/svg11.dtd">
<!-- Generated by graphviz version 12.1.1 (20240910.0053)
 -->
<!-- Title: project Pages: 1 -->
<svg width="381pt" height="380pt"
 viewBox="0.00 0.00 380.62 380.00" xmlns="http://www.w3.org/2000/svg" xmlns:xlink="http://www.w3.org/1999/xlink">
<g id="graph0" class="graph" transform="scale(1 1) rotate(0) translate(4 376)">
<title>project</title>
<polygon fill="white" stroke="none" points="-4,4 -4,-376 376.62,-376 376.62,4 -4,4"/>
<!-- guiApp -->
<g id="node1" class="node">
<title>guiApp</title>
<g id="a_node1"><a xlink:href="tutorial_choosing_projucer_template.html#tutorial_choosing_projucer_template_project_gui_application" target="_top" xlink:title="GUI\nApplication">
<polygon fill="none" stroke="black" stroke-width="2" points="158,-120 88,-120 88,-84 158,-84 158,-120"/>
<text text-anchor="middle" x="123" y="-104.5" font-family="Lucida Grande" font-size="10.00">GUI</text>
<text text-anchor="middle" x="123" y="-92.5" font-family="Lucida Grande" font-size="10.00">Application</text>
</a>
</g>
</g>
<!-- audioApp -->
<g id="node2" class="node">
<title>audioApp</title>
<g id="a_node2"><a xlink:href="tutorial_choosing_projucer_template.html#tutorial_choosing_projucer_template_project_audio_application" target="_top" xlink:title="Audio\nApplication">
<polygon fill="none" stroke="black" stroke-width="2" points="70,-36 0,-36 0,0 70,0 70,-36"/>
<text text-anchor="middle" x="35" y="-20.5" font-family="Lucida Grande" font-size="10.00">Audio</text>
<text text-anchor="middle" x="35" y="-8.5" font-family="Lucida Grande" font-size="10.00">Application</text>
</a>
</g>
</g>
<!-- guiApp&#45;&gt;audioApp -->
<g id="edge9" class="edge">
<title>guiApp&#45;&gt;audioApp</title>
<path fill="none" stroke="black" d="M104.34,-83.61C91.97,-72.09 75.55,-56.79 61.8,-43.97"/>
<polygon fill="black" stroke="black" points="64.45,-41.65 54.74,-37.4 59.67,-46.77 64.45,-41.65"/>
<text text-anchor="middle" x="98.14" y="-56.5" font-family="Lucida Grande" font-size="10.00">Audio</text>
</g>
<!-- animatedApp -->
<g id="node3" class="node">
<title>animatedApp</title>
<g id="a_node3"><a xlink:href="tutorial_choosing_projucer_template.html#tutorial_choosing_projucer_template_project_animated_application" target="_top" xlink:title="Animated\nApplication">
<polygon fill="none" stroke="black" stroke-width="2" points="158,-36 88,-36 88,0 158,0 158,-36"/>
<text text-anchor="middle" x="123" y="-20.5" font-family="Lucida Grande" font-size="10.00">Animated</text>
<text text-anchor="middle" x="123" y="-8.5" font-family="Lucida Grande" font-size="10.00">Application</text>
</a>
</g>
</g>
<!-- guiApp&#45;&gt;animatedApp -->
<g id="edge10" class="edge">
<title>guiApp&#45;&gt;animatedApp</title>
<path fill="none" stroke="black" d="M123,-83.61C123,-73.17 123,-59.64 123,-47.66"/>
<polygon fill="black" stroke="black" points="126.5,-47.88 123,-37.88 119.5,-47.88 126.5,-47.88"/>
<text text-anchor="middle" x="147.38" y="-56.5" font-family="Lucida Grande" font-size="10.00">Animation</text>
</g>
<!-- openglApp -->
<g id="node4" class="node">
<title>openglApp</title>
<g id="a_node4"><a xlink:href="tutorial_choosing_projucer_template.html#tutorial_choosing_projucer_template_project_opengl_application" target="_top" xlink:title="OpenGL\nApplication">
<polygon fill="none" stroke="black" stroke-width="2" points="246,-36 176,-36 176,0 246,0 246,-36"/>
<text text-anchor="middle" x="211" y="-20.5" font-family="Lucida Grande" font-size="10.00">OpenGL</text>
<text text-anchor="middle" x="211" y="-8.5" font-family="Lucida Grande" font-size="10.00">Application</text>
</a>
</g>
</g>
<!-- guiApp&#45;&gt;openglApp -->
<g id="edge11" class="edge">
<title>guiApp&#45;&gt;openglApp</title>
<path fill="none" stroke="black" d="M153.23,-83.63C161.06,-78.46 169.19,-72.44 176,-66 182.41,-59.95 188.48,-52.61 193.72,-45.55"/>
<polygon fill="black" stroke="black" points="196.51,-47.66 199.42,-37.48 190.8,-43.62 196.51,-47.66"/>
<text text-anchor="middle" x="205.66" y="-56.5" font-family="Lucida Grande" font-size="10.00">OpenGL</text>
</g>
<!-- consoleApp -->
<g id="node5" class="node">
<title>consoleApp</title>
<g id="a_node5"><a xlink:href="tutorial_choosing_projucer_template.html#tutorial_choosing_projucer_template_project_console_application" target="_top" xlink:title="Console\nApplication">
<polygon fill="none" stroke="black" stroke-width="2" points="246,-120 176,-120 176,-84 246,-84 246,-120"/>
<text text-anchor="middle" x="211" y="-104.5" font-family="Lucida Grande" font-size="10.00">Console</text>
<text text-anchor="middle" x="211" y="-92.5" font-family="Lucida Grande" font-size="10.00">Application</text>
</a>
</g>
</g>
<!-- audioPlugin -->
<g id="node6" class="node">
<title>audioPlugin</title>
<g id="a_node6"><a xlink:href="tutorial_choosing_projucer_template.html#tutorial_choosing_projucer_template_project_audio_plugin" target="_top" xlink:title="Audio\nPlugin">
<polygon fill="none" stroke="black" stroke-width="2" points="115,-204 61,-204 61,-168 115,-168 115,-204"/>
<text text-anchor="middle" x="88" y="-188.5" font-family="Lucida Grande" font-size="10.00">Audio</text>
<text text-anchor="middle" x="88" y="-176.5" font-family="Lucida Grande" font-size="10.00">Plugin</text>
</a>
</g>
</g>
<!-- staticLibrary -->
<g id="node7" class="node">
<title>staticLibrary</title>
<g id="a_node7"><a xlink:href="tutorial_choosing_projucer_template.html#tutorial_choosing_projucer_template_project_static_dynamic_library" target="_top" xlink:title="Static\nLibrary">
<polygon fill="none" stroke="black" stroke-width="2" points="297,-204 243,-204 243,-168 297,-168 297,-204"/>
<text text-anchor="middle" x="270" y="-188.5" font-family="Lucida Grande" font-size="10.00">Static</text>
<text text-anchor="middle" x="270" y="-176.5" font-family="Lucida Grande" font-size="10.00">Library</text>
</a>
</g>
</g>
<!-- dynamicLibrary -->
<g id="node8" class="node">
<title>dynamicLibrary</title>
<g id="a_node8"><a xlink:href="tutorial_choosing_projucer_template.html#tutorial_choosing_projucer_template_project_static_dynamic_library" target="_top" xlink:title="Dynamic\nLibrary">
<polygon fill="none" stroke="black" stroke-width="2" points="372.62,-204 315.38,-204 315.38,-168 372.62,-168 372.62,-204"/>
<text text-anchor="middle" x="344" y="-188.5" font-family="Lucida Grande" font-size="10.00">Dynamic</text>
<text text-anchor="middle" x="344" y="-176.5" font-family="Lucida Grande" font-size="10.00">Library</text>
</a>
</g>
</g>
<!-- appOrLib -->
<g id="node9" class="node">
<title>appOrLib</title>
<polygon fill="none" stroke="black" points="265.38,-372 182.62,-372 182.62,-336 265.38,-336 265.38,-372"/>
<text text-anchor="middle" x="224" y="-356.5" font-family="Lucida Grande" font-size="10.00">Application or</text>
<text text-anchor="middle" x="224" y="-344.5" font-family="Lucida Grande" font-size="10.00">Library?</text>
</g>
<!-- appOrPlugin -->
<g id="node10" class="node">
<title>appOrPlugin</title>
<polygon fill="none" stroke="black" points="220.38,-288 137.62,-288 137.62,-252 220.38,-252 220.38,-288"/>
<text text-anchor="middle" x="179" y="-272.5" font-family="Lucida Grande" font-size="10.00">Application or</text>
<text text-anchor="middle" x="179" y="-260.5" font-family="Lucida Grande" font-size="10.00">Plugin?</text>
</g>
<!-- appOrLib&#45;&gt;appOrPlugin -->
<g id="edge1" class="edge">
<title>appOrLib&#45;&gt;appOrPlugin</title>
<path fill="none" stroke="black" d="M203.56,-335.65C198.48,-330.44 193.5,-324.39 190,-318 186.88,-312.3 184.65,-305.75 183.04,-299.37"/>
<polygon fill="black" stroke="black" points="186.52,-298.91 181.08,-289.81 179.66,-300.31 186.52,-298.91"/>
<text text-anchor="middle" x="217" y="-308.5" font-family="Lucida Grande" font-size="10.00">Application</text>
</g>
<!-- whichLibrary -->
<g id="node11" class="node">
<title>whichLibrary</title>
<polygon fill="none" stroke="black" points="300.88,-288 239.12,-288 239.12,-252 300.88,-252 300.88,-288"/>
<text text-anchor="middle" x="270" y="-272.5" font-family="Lucida Grande" font-size="10.00">Static or</text>
<text text-anchor="middle" x="270" y="-260.5" font-family="Lucida Grande" font-size="10.00">Dynamic?</text>
</g>
<!-- appOrLib&#45;&gt;whichLibrary -->
<g id="edge2" class="edge">
<title>appOrLib&#45;&gt;whichLibrary</title>
<path fill="none" stroke="black" d="M234.02,-335.58C237.22,-329.98 240.78,-323.73 244,-318 247.6,-311.6 251.44,-304.69 255.04,-298.19"/>
<polygon fill="black" stroke="black" points="257.92,-300.21 259.69,-289.77 251.8,-296.83 257.92,-300.21"/>
<text text-anchor="middle" x="266.6" y="-308.5" font-family="Lucida Grande" font-size="10.00">Library</text>
</g>
<!-- appOrPlugin&#45;&gt;audioPlugin -->
<g id="edge6" class="edge">
<title>appOrPlugin&#45;&gt;audioPlugin</title>
<path fill="none" stroke="black" d="M159.7,-251.61C146.91,-240.09 129.93,-224.79 115.71,-211.97"/>
<polygon fill="black" stroke="black" points="118.17,-209.47 108.4,-205.38 113.48,-214.67 118.17,-209.47"/>
<text text-anchor="middle" x="153.57" y="-224.5" font-family="Lucida Grande" font-size="10.00">Plugin</text>
</g>
<!-- guiOrConsole -->
<g id="node12" class="node">
<title>guiOrConsole</title>
<polygon fill="none" stroke="black" points="224.5,-204 133.5,-204 133.5,-168 224.5,-168 224.5,-204"/>
<text text-anchor="middle" x="179" y="-188.5" font-family="Lucida Grande" font-size="10.00">GUI or</text>
<text text-anchor="middle" x="179" y="-176.5" font-family="Lucida Grande" font-size="10.00">Command Line?</text>
</g>
<!-- appOrPlugin&#45;&gt;guiOrConsole -->
<g id="edge5" class="edge">
<title>appOrPlugin&#45;&gt;guiOrConsole</title>
<path fill="none" stroke="black" d="M179,-251.61C179,-241.17 179,-227.64 179,-215.66"/>
<polygon fill="black" stroke="black" points="182.5,-215.88 179,-205.88 175.5,-215.88 182.5,-215.88"/>
<text text-anchor="middle" x="206" y="-224.5" font-family="Lucida Grande" font-size="10.00">Application</text>
</g>
<!-- whichLibrary&#45;&gt;staticLibrary -->
<g id="edge3" class="edge">
<title>whichLibrary&#45;&gt;staticLibrary</title>
<path fill="none" stroke="black" d="M270,-251.61C270,-241.17 270,-227.64 270,-215.66"/>
<polygon fill="black" stroke="black" points="273.5,-215.88 270,-205.88 266.5,-215.88 273.5,-215.88"/>
<text text-anchor="middle" x="283.12" y="-224.5" font-family="Lucida Grande" font-size="10.00">Static</text>
</g>
<!-- whichLibrary&#45;&gt;dynamicLibrary -->
<g id="edge4" class="edge">
<title>whichLibrary&#45;&gt;dynamicLibrary</title>
<path fill="none" stroke="black" d="M285.69,-251.61C295.9,-240.3 309.38,-225.36 320.81,-212.7"/>
<polygon fill="black" stroke="black" points="323.21,-215.26 327.32,-205.49 318.02,-210.57 323.21,-215.26"/>
<text text-anchor="middle" x="332.06" y="-224.5" font-family="Lucida Grande" font-size="10.00">Dynamic</text>
</g>
<!-- guiOrConsole&#45;&gt;guiApp -->
<g id="edge7" class="edge">
<title>guiOrConsole&#45;&gt;guiApp</title>
<path fill="none" stroke="black" d="M167.12,-167.61C159.63,-156.63 149.79,-142.22 141.3,-129.8"/>
<polygon fill="black" stroke="black" points="144.24,-127.9 135.71,-121.61 138.46,-131.85 144.24,-127.9"/>
<text text-anchor="middle" x="162.98" y="-140.5" font-family="Lucida Grande" font-size="10.00">GUI</text>
</g>
<!-- guiOrConsole&#45;&gt;consoleApp -->
<g id="edge8" class="edge">
<title>guiOrConsole&#45;&gt;consoleApp</title>
<path fill="none" stroke="black" d="M185.79,-167.61C189.94,-156.96 195.36,-143.07 200.11,-130.91"/>
<polygon fill="black" stroke="black" points="203.3,-132.36 203.67,-121.78 196.78,-129.82 203.3,-132.36"/>
<text text-anchor="middle" x="232.17" y="-140.5" font-family="Lucida Grande" font-size="10.00">Command Line</text>
</g>
</g>
</svg>
