<?xml version="1.0" encoding="UTF-8" standalone="no"?>
<!DOCTYPE svg PUBLIC "-//W3C//DTD SVG 1.1//EN"
 "http://www.w3.org/Graphics/SVG/1.1/DTD/svg11.dtd">
<!-- Generated by graphviz version 12.1.1 (20240910.0053)
 -->
<!-- Title: privatekey Pages: 1 -->
<svg width="456pt" height="135pt"
 viewBox="0.00 0.00 455.75 134.50" xmlns="http://www.w3.org/2000/svg" xmlns:xlink="http://www.w3.org/1999/xlink">
<g id="graph0" class="graph" transform="scale(1 1) rotate(0) translate(4 130.5)">
<title>privatekey</title>
<polygon fill="white" stroke="none" points="-4,4 -4,-130.5 451.75,-130.5 451.75,4 -4,4"/>
<text text-anchor="middle" x="223.88" y="-7.2" font-family="Times,serif" font-size="14.00">Alice sends message to Bob</text>
<!-- bob -->
<g id="node1" class="node">
<title>bob</title>
<polygon fill="none" stroke="black" points="170.25,-99.5 116.25,-99.5 116.25,-63.5 170.25,-63.5 170.25,-99.5"/>
<text text-anchor="middle" x="143.25" y="-78" font-family="Lucida Grande" font-size="10.00">Bob</text>
<text text-anchor="middle" x="58.12" y="-54" font-family="Lucida Grande" font-size="10.00">Decrypts with Public key</text>
</g>
<!-- alice -->
<g id="node2" class="node">
<title>alice</title>
<polygon fill="none" stroke="black" points="330,-126.5 276,-126.5 276,-90.5 330,-90.5 330,-126.5"/>
<text text-anchor="middle" x="303" y="-105" font-family="Lucida Grande" font-size="10.00">Alice</text>
<text text-anchor="middle" x="388.88" y="-81" font-family="Lucida Grande" font-size="10.00">Encrypts with Private key</text>
</g>
<!-- bob&#45;&gt;alice -->
<g id="edge1" class="edge">
<title>bob&#45;&gt;alice</title>
<path fill="none" stroke="black" d="M181.94,-87.95C210.8,-92.89 249.89,-99.58 275.51,-103.97"/>
<polygon fill="black" stroke="black" points="182.59,-84.51 172.15,-86.27 181.41,-91.41 182.59,-84.51"/>
<text text-anchor="middle" x="223.12" y="-103.02" font-family="Lucida Grande" font-size="10.00">Authentic</text>
</g>
<!-- eve -->
<g id="node3" class="node">
<title>eve</title>
<ellipse fill="none" stroke="black" cx="303" cy="-54.5" rx="27" ry="18"/>
<text text-anchor="middle" x="303" y="-51" font-family="Lucida Grande" font-size="10.00">Eve</text>
<text text-anchor="middle" x="240" y="-27" font-family="Lucida Grande" font-size="10.00">Cannot encrypt</text>
</g>
<!-- bob&#45;&gt;eve -->
<g id="edge2" class="edge">
<title>bob&#45;&gt;eve</title>
<path fill="none" stroke="black" d="M181.57,-74.68C183.83,-74.27 186.07,-73.88 188.25,-73.5 218.43,-68.24 253.16,-62.48 276.23,-58.7"/>
<polygon fill="black" stroke="black" points="181.01,-71.22 171.79,-76.43 182.25,-78.11 181.01,-71.22"/>
<text text-anchor="middle" x="223.12" y="-76" font-family="Lucida Grande" font-size="10.00">Non&#45;authentic</text>
</g>
</g>
</svg>
