<?xml version="1.0" encoding="UTF-8" standalone="no"?>
<!DOCTYPE svg PUBLIC "-//W3C//DTD SVG 1.1//EN"
 "http://www.w3.org/Graphics/SVG/1.1/DTD/svg11.dtd">
<!-- Generated by graphviz version 12.1.1 (20240910.0053)
 -->
<!-- Title: audioapplication Pages: 1 -->
<svg width="263pt" height="188pt"
 viewBox="0.00 0.00 262.50 188.00" xmlns="http://www.w3.org/2000/svg" xmlns:xlink="http://www.w3.org/1999/xlink">
<g id="graph0" class="graph" transform="scale(1 1) rotate(0) translate(4 184)">
<title>audioapplication</title>
<polygon fill="white" stroke="none" points="-4,4 -4,-184 258.5,-184 258.5,4 -4,4"/>
<!-- audioapp -->
<g id="node1" class="node">
<title>audioapp</title>
<polygon fill="none" stroke="black" points="97.75,-180 0,-180 0,-144 97.75,-144 97.75,-180"/>
<text text-anchor="middle" x="48.88" y="-158.5" font-family="Lucida Grande" font-size="10.00">AudioApplication</text>
</g>
<!-- juceapp -->
<g id="node2" class="node">
<title>juceapp</title>
<polygon fill="none" stroke="black" points="94.75,-108 3,-108 3,-72 94.75,-72 94.75,-108"/>
<text text-anchor="middle" x="48.88" y="-86.5" font-family="Lucida Grande" font-size="10.00">JUCEApplication</text>
</g>
<!-- audioapp&#45;&gt;juceapp -->
<g id="edge1" class="edge">
<title>audioapp&#45;&gt;juceapp</title>
<path fill="none" stroke="black" d="M48.88,-143.7C48.88,-136.41 48.88,-127.73 48.88,-119.54"/>
<polygon fill="black" stroke="black" points="52.38,-119.62 48.88,-109.62 45.38,-119.62 52.38,-119.62"/>
</g>
<!-- maincomponent -->
<g id="node3" class="node">
<title>maincomponent</title>
<polygon fill="none" stroke="black" points="218.5,-180 125.25,-180 125.25,-144 218.5,-144 218.5,-180"/>
<text text-anchor="middle" x="171.88" y="-158.5" font-family="Lucida Grande" font-size="10.00">MainComponent</text>
</g>
<!-- audioappcomponent -->
<g id="node4" class="node">
<title>audioappcomponent</title>
<polygon fill="none" stroke="black" points="230.5,-108 113.25,-108 113.25,-72 230.5,-72 230.5,-108"/>
<text text-anchor="middle" x="171.88" y="-86.5" font-family="Lucida Grande" font-size="10.00">AudioAppComponent</text>
</g>
<!-- maincomponent&#45;&gt;audioappcomponent -->
<g id="edge2" class="edge">
<title>maincomponent&#45;&gt;audioappcomponent</title>
<path fill="none" stroke="black" d="M171.88,-143.7C171.88,-136.41 171.88,-127.73 171.88,-119.54"/>
<polygon fill="black" stroke="black" points="175.38,-119.62 171.88,-109.62 168.38,-119.62 175.38,-119.62"/>
</g>
<!-- component -->
<g id="node5" class="node">
<title>component</title>
<polygon fill="none" stroke="black" points="161.25,-36 90.5,-36 90.5,0 161.25,0 161.25,-36"/>
<text text-anchor="middle" x="125.88" y="-14.5" font-family="Lucida Grande" font-size="10.00">Component</text>
</g>
<!-- audioappcomponent&#45;&gt;component -->
<g id="edge3" class="edge">
<title>audioappcomponent&#45;&gt;component</title>
<path fill="none" stroke="black" d="M160.5,-71.7C155.32,-63.81 149.07,-54.3 143.32,-45.55"/>
<polygon fill="black" stroke="black" points="146.36,-43.8 137.95,-37.37 140.51,-47.65 146.36,-43.8"/>
</g>
<!-- audiosource -->
<g id="node6" class="node">
<title>audiosource</title>
<polygon fill="none" stroke="black" points="254.5,-36 179.25,-36 179.25,0 254.5,0 254.5,-36"/>
<text text-anchor="middle" x="216.88" y="-14.5" font-family="Lucida Grande" font-size="10.00">AudioSource</text>
</g>
<!-- audioappcomponent&#45;&gt;audiosource -->
<g id="edge4" class="edge">
<title>audioappcomponent&#45;&gt;audiosource</title>
<path fill="none" stroke="black" d="M183,-71.7C188.07,-63.81 194.18,-54.3 199.81,-45.55"/>
<polygon fill="black" stroke="black" points="202.6,-47.68 205.06,-37.38 196.71,-43.9 202.6,-47.68"/>
</g>
</g>
</svg>
