<?xml version="1.0" encoding="UTF-8" standalone="no"?>
<!DOCTYPE svg PUBLIC "-//W3C//DTD SVG 1.1//EN"
 "http://www.w3.org/Graphics/SVG/1.1/DTD/svg11.dtd">
<!-- Generated by graphviz version 12.1.1 (20240910.0053)
 -->
<!-- Title: audioplugin Pages: 1 -->
<svg width="414pt" height="116pt"
 viewBox="0.00 0.00 413.62 116.00" xmlns="http://www.w3.org/2000/svg" xmlns:xlink="http://www.w3.org/1999/xlink">
<g id="graph0" class="graph" transform="scale(1 1) rotate(0) translate(4 112)">
<title>audioplugin</title>
<polygon fill="white" stroke="none" points="-4,4 -4,-112 409.62,-112 409.62,4 -4,4"/>
<!-- vst -->
<g id="node1" class="node">
<title>vst</title>
<ellipse fill="none" stroke="black" cx="27" cy="-90" rx="27" ry="18"/>
<text text-anchor="middle" x="27" y="-86.5" font-family="Lucida Grande" font-size="10.00">VST</text>
</g>
<!-- audioprocessor -->
<g id="node5" class="node">
<title>audioprocessor</title>
<polygon fill="none" stroke="black" points="179.75,-36 90.25,-36 90.25,0 179.75,0 179.75,-36"/>
<text text-anchor="middle" x="135" y="-14.5" font-family="Lucida Grande" font-size="10.00">AudioProcessor</text>
</g>
<!-- vst&#45;&gt;audioprocessor -->
<g id="edge1" class="edge">
<title>vst&#45;&gt;audioprocessor</title>
<path fill="none" stroke="black" stroke-dasharray="1,5" d="M45.81,-76.81C60.4,-67.35 81.04,-53.97 98.8,-42.46"/>
<polygon fill="black" stroke="black" points="100.55,-45.5 107.04,-37.12 96.75,-39.62 100.55,-45.5"/>
</g>
<!-- au -->
<g id="node2" class="node">
<title>au</title>
<ellipse fill="none" stroke="black" cx="99" cy="-90" rx="27" ry="18"/>
<text text-anchor="middle" x="99" y="-86.5" font-family="Lucida Grande" font-size="10.00">AU</text>
</g>
<!-- au&#45;&gt;audioprocessor -->
<g id="edge2" class="edge">
<title>au&#45;&gt;audioprocessor</title>
<path fill="none" stroke="black" stroke-dasharray="1,5" d="M107.35,-72.76C111.41,-64.87 116.4,-55.16 121.02,-46.18"/>
<polygon fill="black" stroke="black" points="124.04,-47.96 125.5,-37.47 117.82,-44.76 124.04,-47.96"/>
</g>
<!-- rtas -->
<g id="node3" class="node">
<title>rtas</title>
<ellipse fill="none" stroke="black" cx="171" cy="-90" rx="27" ry="18"/>
<text text-anchor="middle" x="171" y="-86.5" font-family="Lucida Grande" font-size="10.00">RTAS</text>
</g>
<!-- rtas&#45;&gt;audioprocessor -->
<g id="edge3" class="edge">
<title>rtas&#45;&gt;audioprocessor</title>
<path fill="none" stroke="black" stroke-dasharray="1,5" d="M162.65,-72.76C158.59,-64.87 153.6,-55.16 148.98,-46.18"/>
<polygon fill="black" stroke="black" points="152.18,-44.76 144.5,-37.47 145.96,-47.96 152.18,-44.76"/>
</g>
<!-- aax -->
<g id="node4" class="node">
<title>aax</title>
<ellipse fill="none" stroke="black" cx="243" cy="-90" rx="27" ry="18"/>
<text text-anchor="middle" x="243" y="-86.5" font-family="Lucida Grande" font-size="10.00">AAX</text>
</g>
<!-- aax&#45;&gt;audioprocessor -->
<g id="edge4" class="edge">
<title>aax&#45;&gt;audioprocessor</title>
<path fill="none" stroke="black" stroke-dasharray="1,5" d="M224.19,-76.81C209.6,-67.35 188.96,-53.97 171.2,-42.46"/>
<polygon fill="black" stroke="black" points="173.25,-39.62 162.96,-37.12 169.45,-45.5 173.25,-39.62"/>
</g>
<!-- audioprocessoreditor -->
<g id="node6" class="node">
<title>audioprocessoreditor</title>
<polygon fill="none" stroke="black" points="405.62,-108 288.38,-108 288.38,-72 405.62,-72 405.62,-108"/>
<text text-anchor="middle" x="347" y="-86.5" font-family="Lucida Grande" font-size="10.00">AudioProcessorEditor</text>
</g>
<!-- component -->
<g id="node7" class="node">
<title>component</title>
<polygon fill="none" stroke="black" points="382.38,-36 311.62,-36 311.62,0 382.38,0 382.38,-36"/>
<text text-anchor="middle" x="347" y="-14.5" font-family="Lucida Grande" font-size="10.00">Component</text>
</g>
<!-- audioprocessoreditor&#45;&gt;component -->
<g id="edge5" class="edge">
<title>audioprocessoreditor&#45;&gt;component</title>
<path fill="none" stroke="black" d="M347,-71.7C347,-64.41 347,-55.73 347,-47.54"/>
<polygon fill="black" stroke="black" points="350.5,-47.62 347,-37.62 343.5,-47.62 350.5,-47.62"/>
</g>
</g>
</svg>
