<?xml version="1.0" encoding="UTF-8" standalone="no"?>
<!DOCTYPE svg PUBLIC "-//W3C//DTD SVG 1.1//EN"
 "http://www.w3.org/Graphics/SVG/1.1/DTD/svg11.dtd">
<!-- Generated by graphviz version 12.1.1 (20240910.0053)
 -->
<!-- Title: openglapplication Pages: 1 -->
<svg width="286pt" height="188pt"
 viewBox="0.00 0.00 286.12 188.00" xmlns="http://www.w3.org/2000/svg" xmlns:xlink="http://www.w3.org/1999/xlink">
<g id="graph0" class="graph" transform="scale(1 1) rotate(0) translate(4 184)">
<title>openglapplication</title>
<polygon fill="white" stroke="none" points="-4,4 -4,-184 282.12,-184 282.12,4 -4,4"/>
<!-- openglapp -->
<g id="node1" class="node">
<title>openglapp</title>
<polygon fill="none" stroke="black" points="107.5,-180 0,-180 0,-144 107.5,-144 107.5,-180"/>
<text text-anchor="middle" x="53.75" y="-158.5" font-family="Lucida Grande" font-size="10.00">OpenGLApplication</text>
</g>
<!-- juceapp -->
<g id="node2" class="node">
<title>juceapp</title>
<polygon fill="none" stroke="black" points="99.62,-108 7.88,-108 7.88,-72 99.62,-72 99.62,-108"/>
<text text-anchor="middle" x="53.75" y="-86.5" font-family="Lucida Grande" font-size="10.00">JUCEApplication</text>
</g>
<!-- openglapp&#45;&gt;juceapp -->
<g id="edge1" class="edge">
<title>openglapp&#45;&gt;juceapp</title>
<path fill="none" stroke="black" d="M53.75,-143.7C53.75,-136.41 53.75,-127.73 53.75,-119.54"/>
<polygon fill="black" stroke="black" points="57.25,-119.62 53.75,-109.62 50.25,-119.62 57.25,-119.62"/>
</g>
<!-- maincomponent -->
<g id="node3" class="node">
<title>maincomponent</title>
<polygon fill="none" stroke="black" points="227.38,-180 134.12,-180 134.12,-144 227.38,-144 227.38,-180"/>
<text text-anchor="middle" x="180.75" y="-158.5" font-family="Lucida Grande" font-size="10.00">MainComponent</text>
</g>
<!-- openglappcomponent -->
<g id="node4" class="node">
<title>openglappcomponent</title>
<polygon fill="none" stroke="black" points="244.25,-108 117.25,-108 117.25,-72 244.25,-72 244.25,-108"/>
<text text-anchor="middle" x="180.75" y="-86.5" font-family="Lucida Grande" font-size="10.00">OpenGLAppComponent</text>
</g>
<!-- maincomponent&#45;&gt;openglappcomponent -->
<g id="edge2" class="edge">
<title>maincomponent&#45;&gt;openglappcomponent</title>
<path fill="none" stroke="black" d="M180.75,-143.7C180.75,-136.41 180.75,-127.73 180.75,-119.54"/>
<polygon fill="black" stroke="black" points="184.25,-119.62 180.75,-109.62 177.25,-119.62 184.25,-119.62"/>
</g>
<!-- component -->
<g id="node5" class="node">
<title>component</title>
<polygon fill="none" stroke="black" points="165.12,-36 94.38,-36 94.38,0 165.12,0 165.12,-36"/>
<text text-anchor="middle" x="129.75" y="-14.5" font-family="Lucida Grande" font-size="10.00">Component</text>
</g>
<!-- openglappcomponent&#45;&gt;component -->
<g id="edge3" class="edge">
<title>openglappcomponent&#45;&gt;component</title>
<path fill="none" stroke="black" d="M168.14,-71.7C162.34,-63.73 155.32,-54.1 148.89,-45.26"/>
<polygon fill="black" stroke="black" points="151.82,-43.35 143.1,-37.33 146.16,-47.47 151.82,-43.35"/>
</g>
<!-- openglrenderer -->
<g id="node6" class="node">
<title>openglrenderer</title>
<polygon fill="none" stroke="black" points="278.12,-36 183.38,-36 183.38,0 278.12,0 278.12,-36"/>
<text text-anchor="middle" x="230.75" y="-14.5" font-family="Lucida Grande" font-size="10.00">OpenGLRenderer</text>
</g>
<!-- openglappcomponent&#45;&gt;openglrenderer -->
<g id="edge4" class="edge">
<title>openglappcomponent&#45;&gt;openglrenderer</title>
<path fill="none" stroke="black" d="M193.11,-71.7C198.8,-63.73 205.68,-54.1 211.99,-45.26"/>
<polygon fill="black" stroke="black" points="214.69,-47.51 217.65,-37.34 208.99,-43.44 214.69,-47.51"/>
</g>
</g>
</svg>
