<?xml version="1.0" encoding="UTF-8" standalone="no"?>
<!DOCTYPE svg PUBLIC "-//W3C//DTD SVG 1.1//EN"
 "http://www.w3.org/Graphics/SVG/1.1/DTD/svg11.dtd">
<!-- Generated by graphviz version 12.1.1 (20240910.0053)
 -->
<!-- Title: publickey Pages: 1 -->
<svg width="451pt" height="135pt"
 viewBox="0.00 0.00 451.25 134.50" xmlns="http://www.w3.org/2000/svg" xmlns:xlink="http://www.w3.org/1999/xlink">
<g id="graph0" class="graph" transform="scale(1 1) rotate(0) translate(4 130.5)">
<title>publickey</title>
<polygon fill="white" stroke="none" points="-4,4 -4,-130.5 447.25,-130.5 447.25,4 -4,4"/>
<text text-anchor="middle" x="221.62" y="-7.2" font-family="Times,serif" font-size="14.00">Bob sends message to Alice</text>
<!-- bob -->
<g id="node1" class="node">
<title>bob</title>
<polygon fill="none" stroke="black" points="168.75,-99.5 114.75,-99.5 114.75,-63.5 168.75,-63.5 168.75,-99.5"/>
<text text-anchor="middle" x="141.75" y="-78" font-family="Lucida Grande" font-size="10.00">Bob</text>
<text text-anchor="middle" x="57.38" y="-54" font-family="Lucida Grande" font-size="10.00">Encrypts with Public key</text>
</g>
<!-- alice -->
<g id="node2" class="node">
<title>alice</title>
<polygon fill="none" stroke="black" points="324,-126.5 270,-126.5 270,-90.5 324,-90.5 324,-126.5"/>
<text text-anchor="middle" x="297" y="-105" font-family="Lucida Grande" font-size="10.00">Alice</text>
<text text-anchor="middle" x="383.62" y="-81" font-family="Lucida Grande" font-size="10.00">Decrypts with Private key</text>
</g>
<!-- bob&#45;&gt;alice -->
<g id="edge1" class="edge">
<title>bob&#45;&gt;alice</title>
<path fill="none" stroke="black" d="M169.09,-86.14C193.73,-90.48 230.78,-97.01 258.5,-101.89"/>
<polygon fill="black" stroke="black" points="257.8,-105.32 268.25,-103.61 259.01,-98.43 257.8,-105.32"/>
<text text-anchor="middle" x="219.38" y="-103.02" font-family="Lucida Grande" font-size="10.00">Readable</text>
</g>
<!-- eve -->
<g id="node3" class="node">
<title>eve</title>
<ellipse fill="none" stroke="black" cx="297" cy="-54.5" rx="27" ry="18"/>
<text text-anchor="middle" x="297" y="-51" font-family="Lucida Grande" font-size="10.00">Eve</text>
<text text-anchor="middle" x="234" y="-27" font-family="Lucida Grande" font-size="10.00">Cannot decrypt</text>
</g>
<!-- bob&#45;&gt;eve -->
<g id="edge2" class="edge">
<title>bob&#45;&gt;eve</title>
<path fill="none" stroke="black" d="M168.8,-76.73C174.7,-75.66 180.94,-74.53 186.75,-73.5 210.9,-69.2 238.07,-64.48 259.28,-60.81"/>
<polygon fill="black" stroke="black" points="259.63,-64.3 268.89,-59.16 258.44,-57.41 259.63,-64.3"/>
<text text-anchor="middle" x="219.38" y="-76" font-family="Lucida Grande" font-size="10.00">Non&#45;readable</text>
</g>
</g>
</svg>
