<?xml version="1.0" encoding="UTF-8" standalone="no"?>
<!DOCTYPE svg PUBLIC "-//W3C//DTD SVG 1.1//EN"
 "http://www.w3.org/Graphics/SVG/1.1/DTD/svg11.dtd">
<!-- Generated by graphviz version 12.1.1 (20240910.0053)
 -->
<!-- Title: animatedapplication Pages: 1 -->
<svg width="264pt" height="188pt"
 viewBox="0.00 0.00 263.75 188.00" xmlns="http://www.w3.org/2000/svg" xmlns:xlink="http://www.w3.org/1999/xlink">
<g id="graph0" class="graph" transform="scale(1 1) rotate(0) translate(4 184)">
<title>animatedapplication</title>
<polygon fill="white" stroke="none" points="-4,4 -4,-184 259.75,-184 259.75,4 -4,4"/>
<!-- animatedapp -->
<g id="node1" class="node">
<title>animatedapp</title>
<polygon fill="none" stroke="black" points="115,-180 0,-180 0,-144 115,-144 115,-180"/>
<text text-anchor="middle" x="57.5" y="-158.5" font-family="Lucida Grande" font-size="10.00">AnimatedApplication</text>
</g>
<!-- juceapp -->
<g id="node2" class="node">
<title>juceapp</title>
<polygon fill="none" stroke="black" points="103.38,-108 11.62,-108 11.62,-72 103.38,-72 103.38,-108"/>
<text text-anchor="middle" x="57.5" y="-86.5" font-family="Lucida Grande" font-size="10.00">JUCEApplication</text>
</g>
<!-- animatedapp&#45;&gt;juceapp -->
<g id="edge1" class="edge">
<title>animatedapp&#45;&gt;juceapp</title>
<path fill="none" stroke="black" d="M57.5,-143.7C57.5,-136.41 57.5,-127.73 57.5,-119.54"/>
<polygon fill="black" stroke="black" points="61,-119.62 57.5,-109.62 54,-119.62 61,-119.62"/>
</g>
<!-- maincomponent -->
<g id="node3" class="node">
<title>maincomponent</title>
<polygon fill="none" stroke="black" points="235.12,-180 141.88,-180 141.88,-144 235.12,-144 235.12,-180"/>
<text text-anchor="middle" x="188.5" y="-158.5" font-family="Lucida Grande" font-size="10.00">MainComponent</text>
</g>
<!-- animatedappcomponent -->
<g id="node4" class="node">
<title>animatedappcomponent</title>
<polygon fill="none" stroke="black" points="255.75,-108 121.25,-108 121.25,-72 255.75,-72 255.75,-108"/>
<text text-anchor="middle" x="188.5" y="-86.5" font-family="Lucida Grande" font-size="10.00">AnimatedAppComponent</text>
</g>
<!-- maincomponent&#45;&gt;animatedappcomponent -->
<g id="edge2" class="edge">
<title>maincomponent&#45;&gt;animatedappcomponent</title>
<path fill="none" stroke="black" d="M188.5,-143.7C188.5,-136.41 188.5,-127.73 188.5,-119.54"/>
<polygon fill="black" stroke="black" points="192,-119.62 188.5,-109.62 185,-119.62 192,-119.62"/>
</g>
<!-- component -->
<g id="node5" class="node">
<title>component</title>
<polygon fill="none" stroke="black" points="183.88,-36 113.12,-36 113.12,0 183.88,0 183.88,-36"/>
<text text-anchor="middle" x="148.5" y="-14.5" font-family="Lucida Grande" font-size="10.00">Component</text>
</g>
<!-- animatedappcomponent&#45;&gt;component -->
<g id="edge3" class="edge">
<title>animatedappcomponent&#45;&gt;component</title>
<path fill="none" stroke="black" d="M178.61,-71.7C174.16,-63.9 168.79,-54.51 163.83,-45.83"/>
<polygon fill="black" stroke="black" points="167.03,-44.36 159.02,-37.42 160.95,-47.84 167.03,-44.36"/>
</g>
<!-- timer -->
<g id="node6" class="node">
<title>timer</title>
<polygon fill="none" stroke="black" points="255.5,-36 201.5,-36 201.5,0 255.5,0 255.5,-36"/>
<text text-anchor="middle" x="228.5" y="-14.5" font-family="Lucida Grande" font-size="10.00">Timer</text>
</g>
<!-- animatedappcomponent&#45;&gt;timer -->
<g id="edge4" class="edge">
<title>animatedappcomponent&#45;&gt;timer</title>
<path fill="none" stroke="black" d="M198.39,-71.7C202.84,-63.9 208.21,-54.51 213.17,-45.83"/>
<polygon fill="black" stroke="black" points="216.05,-47.84 217.98,-37.42 209.97,-44.36 216.05,-47.84"/>
</g>
</g>
</svg>
