<svg xmlns="http://www.w3.org/2000/svg" xmlns:xlink="http://www.w3.org/1999/xlink" width="198pt" height="360pt" viewBox="0.00 0.00 198.15 359.76">
<g id="graph0" class="graph" transform="scale(1 1) rotate(0) translate(4 355.76)">
<title>audioprocessorgraph</title>
<polygon fill="white" stroke="none" points="-4,4 -4,-355.76 194.15,-355.76 194.15,4 -4,4"/>
<!-- audioInputNode -->
<g id="node1" class="node">
<title>audioInputNode</title>
<polygon fill="none" stroke="black" points="85.78,-351.76 14.28,-351.76 14.28,-315.76 85.78,-315.76 85.78,-351.76"/>
<text text-anchor="middle" x="50.03" y="-336.26" font-family="Lucida Grande" font-size="10.00">Audio Input</text>
<text text-anchor="middle" x="50.03" y="-324.26" font-family="Lucida Grande" font-size="10.00">Node</text>
</g>
<!-- processor1 -->
<g id="node5" class="node">
<title>processor1</title>
<ellipse fill="none" stroke="black" cx="50.03" cy="-257.14" rx="50.03" ry="22.63"/>
<text text-anchor="middle" x="50.03" y="-259.64" font-family="Lucida Grande" font-size="10.00">Processor 1</text>
<text text-anchor="middle" x="50.03" y="-247.64" font-family="Lucida Grande" font-size="10.00">Node</text>
</g>
<!-- audioInputNode&#45;&gt;processor1 -->
<g id="edge1" class="edge">
<title>audioInputNode-&gt;processor1</title>
<path fill="none" stroke="black" d="M50.03,-315.46C50.03,-308.31 50.03,-299.79 50.03,-291.52"/>
<polygon fill="black" stroke="black" points="53.53,-291.69 50.03,-281.69 46.53,-291.69 53.53,-291.69"/>
</g>
<!-- audioOutputNode -->
<g id="node2" class="node">
<title>audioOutputNode</title>
<polygon fill="none" stroke="black" points="89.9,-36 10.15,-36 10.15,0 89.9,0 89.9,-36"/>
<text text-anchor="middle" x="50.03" y="-20.5" font-family="Lucida Grande" font-size="10.00">Audio Output</text>
<text text-anchor="middle" x="50.03" y="-8.5" font-family="Lucida Grande" font-size="10.00">Node</text>
</g>
<!-- midiInputNode -->
<g id="node3" class="node">
<title>midiInputNode</title>
<polygon fill="none" stroke="black" points="186.03,-351.76 122.03,-351.76 122.03,-315.76 186.03,-315.76 186.03,-351.76"/>
<text text-anchor="middle" x="154.03" y="-336.26" font-family="Lucida Grande" font-size="10.00">Midi Input</text>
<text text-anchor="middle" x="154.03" y="-324.26" font-family="Lucida Grande" font-size="10.00">Node</text>
</g>
<!-- midiOutputNode -->
<g id="node4" class="node">
<title>midiOutputNode</title>
<polygon fill="none" stroke="black" points="190.15,-275.14 117.9,-275.14 117.9,-239.14 190.15,-239.14 190.15,-275.14"/>
<text text-anchor="middle" x="154.03" y="-259.64" font-family="Lucida Grande" font-size="10.00">Midi Output</text>
<text text-anchor="middle" x="154.03" y="-247.64" font-family="Lucida Grande" font-size="10.00">Node</text>
</g>
<!-- midiInputNode&#45;&gt;midiOutputNode -->
<g id="edge5" class="edge">
<title>midiInputNode-&gt;midiOutputNode</title>
<path fill="none" stroke="black" d="M154.03,-315.46C154.03,-307.04 154.03,-296.69 154.03,-287.12"/>
<polygon fill="black" stroke="black" points="157.53,-287.12 154.03,-277.12 150.53,-287.12 157.53,-287.12"/>
</g>
<!-- processor2 -->
<g id="node6" class="node">
<title>processor2</title>
<ellipse fill="none" stroke="black" cx="50.03" cy="-175.88" rx="50.03" ry="22.63"/>
<text text-anchor="middle" x="50.03" y="-178.38" font-family="Lucida Grande" font-size="10.00">Processor 2</text>
<text text-anchor="middle" x="50.03" y="-166.38" font-family="Lucida Grande" font-size="10.00">Node</text>
</g>
<!-- processor1&#45;&gt;processor2 -->
<g id="edge2" class="edge">
<title>processor1-&gt;processor2</title>
<path fill="none" stroke="black" d="M50.03,-234.06C50.03,-226.67 50.03,-218.27 50.03,-210.22"/>
<polygon fill="black" stroke="black" points="53.53,-210.35 50.03,-200.35 46.53,-210.35 53.53,-210.35"/>
</g>
<!-- processor3 -->
<g id="node7" class="node">
<title>processor3</title>
<ellipse fill="none" stroke="black" cx="50.03" cy="-94.63" rx="50.03" ry="22.63"/>
<text text-anchor="middle" x="50.03" y="-97.13" font-family="Lucida Grande" font-size="10.00">Processor 3</text>
<text text-anchor="middle" x="50.03" y="-85.13" font-family="Lucida Grande" font-size="10.00">Node</text>
</g>
<!-- processor2&#45;&gt;processor3 -->
<g id="edge3" class="edge">
<title>processor2-&gt;processor3</title>
<path fill="none" stroke="black" d="M50.03,-152.81C50.03,-145.42 50.03,-137.01 50.03,-128.97"/>
<polygon fill="black" stroke="black" points="53.53,-129.1 50.03,-119.1 46.53,-129.1 53.53,-129.1"/>
</g>
<!-- processor3&#45;&gt;audioOutputNode -->
<g id="edge4" class="edge">
<title>processor3-&gt;audioOutputNode</title>
<path fill="none" stroke="black" d="M50.03,-71.64C50.03,-64.1 50.03,-55.56 50.03,-47.57"/>
<polygon fill="black" stroke="black" points="53.53,-47.61 50.03,-37.61 46.53,-47.61 53.53,-47.61"/>
</g>
</g>
</svg>